<svg viewBox="0 0 1100 900" xmlns="http://www.w3.org/2000/svg">
  <!-- Styles -->
  <defs>
    <style>
      .entity {
        fill: #f8f9fa;
        stroke: #6c757d;
        stroke-width: 2;
      }
      .entity-header {
        fill: #e9ecef;
        stroke: #6c757d;
        stroke-width: 2;
      }
      .title {
        font-family: Arial, sans-serif;
        font-size: 14px;
        font-weight: bold;
        text-anchor: middle;
      }
      .attribute {
        font-family: Arial, sans-serif;
        font-size: 12px;
        text-anchor: start;
      }
      .pk {
        font-weight: bold;
      }
      .relationship {
        stroke: #495057;
        stroke-width: 1.5;
        fill: none;
        marker-end: url(#arrowhead);
      }
      .relationship-dotted {
        stroke: #495057;
        stroke-width: 1.5;
        stroke-dasharray: 5,3;
        fill: none;
        marker-end: url(#arrowhead);
      }
      .cardinality {
        font-family: Arial, sans-serif;
        font-size: 12px;
        text-anchor: middle;
        fill: #495057;
      }
    </style>
    <marker id="arrowhead" markerWidth="10" markerHeight="7" refX="9" refY="3.5" orient="auto">
      <polygon points="0 0, 10 3.5, 0 7" fill="#495057" />
    </marker>
  </defs>
  
  <!-- Entities -->
  
  <!-- Company -->
  <g transform="translate(550, 80)">
    <rect class="entity-header" x="-100" y="0" width="200" height="30" rx="3" ry="3" />
    <rect class="entity" x="-100" y="30" width="200" height="140" rx="0" ry="0" />
    <text class="title" x="0" y="20">Company (CompanyInfo)</text>
    <text class="attribute pk" x="-90" y="50">Id (PK)</text>
    <text class="attribute" x="-90" y="70">CompanyName</text>
    <text class="attribute" x="-90" y="90">LegalName</text>
    <text class="attribute" x="-90" y="110">CompanyAddr</text>
    <text class="attribute" x="-90" y="130">Country</text>
    <text class="attribute" x="-90" y="150">FiscalYearStartMonth</text>
    <text class="attribute" x="-90" y="170">TaxIdentifiers</text>
  </g>
  
  <!-- Account -->
  <g transform="translate(200, 320)">
    <rect class="entity-header" x="-100" y="0" width="200" height="30" rx="3" ry="3" />
    <rect class="entity" x="-100" y="30" width="200" height="140" rx="0" ry="0" />
    <text class="title" x="0" y="20">Account</text>
    <text class="attribute pk" x="-90" y="50">Id (PK)</text>
    <text class="attribute" x="-90" y="70">Name</text>
    <text class="attribute" x="-90" y="90">AccountType</text>
    <text class="attribute" x="-90" y="110">AccountSubType</text>
    <text class="attribute" x="-90" y="130">Classification</text>
    <text class="attribute" x="-90" y="150">CurrentBalance</text>
    <text class="attribute" x="-90" y="170">Active</text>
  </g>
  
  <!-- Customer -->
  <g transform="translate(550, 320)">
    <rect class="entity-header" x="-100" y="0" width="200" height="30" rx="3" ry="3" />
    <rect class="entity" x="-100" y="30" width="200" height="160" rx="0" ry="0" />
    <text class="title" x="0" y="20">Customer</text>
    <text class="attribute pk" x="-90" y="50">Id (PK)</text>
    <text class="attribute" x="-90" y="70">DisplayName</text>
    <text class="attribute" x="-90" y="90">GivenName, FamilyName</text>
    <text class="attribute" x="-90" y="110">CompanyName</text>
    <text class="attribute" x="-90" y="130">BillAddr, ShipAddr</text>
    <text class="attribute" x="-90" y="150">PrimaryEmailAddr</text>
    <text class="attribute" x="-90" y="170">Balance</text>
    <text class="attribute" x="-90" y="190">ParentRef (FK)</text>
  </g>
  
  <!-- Vendor -->
  <g transform="translate(900, 320)">
    <rect class="entity-header" x="-100" y="0" width="200" height="30" rx="3" ry="3" />
    <rect class="entity" x="-100" y="30" width="200" height="140" rx="0" ry="0" />
    <text class="title" x="0" y="20">Vendor</text>
    <text class="attribute pk" x="-90" y="50">Id (PK)</text>
    <text class="attribute" x="-90" y="70">DisplayName</text>
    <text class="attribute" x="-90" y="90">GivenName, FamilyName</text>
    <text class="attribute" x="-90" y="110">CompanyName</text>
    <text class="attribute" x="-90" y="130">BillAddr</text>
    <text class="attribute" x="-90" y="150">PrimaryEmailAddr</text>
    <text class="attribute" x="-90" y="170">Balance, TaxIdentifier</text>
  </g>
  
  <!-- Item -->
  <g transform="translate(200, 540)">
    <rect class="entity-header" x="-100" y="0" width="200" height="30" rx="3" ry="3" />
    <rect class="entity" x="-100" y="30" width="200" height="160" rx="0" ry="0" />
    <text class="title" x="0" y="20">Item</text>
    <text class="attribute pk" x="-90" y="50">Id (PK)</text>
    <text class="attribute" x="-90" y="70">Name</text>
    <text class="attribute" x="-90" y="90">Description</text>
    <text class="attribute" x="-90" y="110">Type</text>
    <text class="attribute" x="-90" y="130">UnitPrice</text>
    <text class="attribute" x="-90" y="150">QtyOnHand</text>
    <text class="attribute" x="-90" y="170">IncomeAccountRef (FK)</text>
    <text class="attribute" x="-90" y="190">ExpenseAccountRef (FK)</text>
  </g>
  
  <!-- Invoice -->
  <g transform="translate(430, 540)">
    <rect class="entity-header" x="-100" y="0" width="200" height="30" rx="3" ry="3" />
    <rect class="entity" x="-100" y="30" width="200" height="140" rx="0" ry="0" />
    <text class="title" x="0" y="20">Invoice</text>
    <text class="attribute pk" x="-90" y="50">Id (PK)</text>
    <text class="attribute" x="-90" y="70">DocNumber</text>
    <text class="attribute" x="-90" y="90">TxnDate</text>
    <text class="attribute" x="-90" y="110">DueDate</text>
    <text class="attribute" x="-90" y="130">TotalAmt</text>
    <text class="attribute" x="-90" y="150">Balance</text>
    <text class="attribute" x="-90" y="170">CustomerRef (FK)</text>
  </g>
  
  <!-- Payment -->
  <g transform="translate(650, 540)">
    <rect class="entity-header" x="-100" y="0" width="200" height="30" rx="3" ry="3" />
    <rect class="entity" x="-100" y="30" width="200" height="140" rx="0" ry="0" />
    <text class="title" x="0" y="20">Payment</text>
    <text class="attribute pk" x="-90" y="50">Id (PK)</text>
    <text class="attribute" x="-90" y="70">TotalAmt</text>
    <text class="attribute" x="-90" y="90">TxnDate</text>
    <text class="attribute" x="-90" y="110">PaymentMethodRef (FK)</text>
    <text class="attribute" x="-90" y="130">DepositToAccountRef (FK)</text>
    <text class="attribute" x="-90" y="150">UnappliedAmt</text>
    <text class="attribute" x="-90" y="170">CustomerRef (FK)</text>
  </g>
  
  <!-- Bill -->
  <g transform="translate(870, 540)">
    <rect class="entity-header" x="-100" y="0" width="200" height="30" rx="3" ry="3" />
    <rect class="entity" x="-100" y="30" width="200" height="140" rx="0" ry="0" />
    <text class="title" x="0" y="20">Bill</text>
    <text class="attribute pk" x="-90" y="50">Id (PK)</text>
    <text class="attribute" x="-90" y="70">DocNumber</text>
    <text class="attribute" x="-90" y="90">TxnDate</text>
    <text class="attribute" x="-90" y="110">DueDate</text>
    <text class="attribute" x="-90" y="130">TotalAmt</text>
    <text class="attribute" x="-90" y="150">Balance</text>
    <text class="attribute" x="-90" y="170">VendorRef (FK)</text>
  </g>
  
  <!-- Estimate -->
  <g transform="translate(320, 740)">
    <rect class="entity-header" x="-100" y="0" width="200" height="30" rx="3" ry="3" />
    <rect class="entity" x="-100" y="30" width="200" height="140" rx="0" ry="0" />
    <text class="title" x="0" y="20">Estimate</text>
    <text class="attribute pk" x="-90" y="50">Id (PK)</text>
    <text class="attribute" x="-90" y="70">DocNumber</text>
    <text class="attribute" x="-90" y="90">TxnDate</text>
    <text class="attribute" x="-90" y="110">ExpirationDate</text>
    <text class="attribute" x="-90" y="130">TotalAmt</text>
    <text class="attribute" x="-90" y="150">Status</text>
    <text class="attribute" x="-90" y="170">CustomerRef (FK)</text>
  </g>
  
  <!-- PurchaseOrder -->
  <g transform="translate(540, 740)">
    <rect class="entity-header" x="-100" y="0" width="200" height="30" rx="3" ry="3" />
    <rect class="entity" x="-100" y="30" width="200" height="120" rx="0" ry="0" />
    <text class="title" x="0" y="20">PurchaseOrder</text>
    <text class="attribute pk" x="-90" y="50">Id (PK)</text>
    <text class="attribute" x="-90" y="70">DocNumber</text>
    <text class="attribute" x="-90" y="90">TxnDate</text>
    <text class="attribute" x="-90" y="110">POStatus</text>
    <text class="attribute" x="-90" y="130">TotalAmt</text>
    <text class="attribute" x="-90" y="150">VendorRef (FK)</text>
  </g>
  
  <!-- TaxAgency -->
  <g transform="translate(760, 740)">
    <rect class="entity-header" x="-100" y="0" width="200" height="30" rx="3" ry="3" />
    <rect class="entity" x="-100" y="30" width="200" height="100" rx="0" ry="0" />
    <text class="title" x="0" y="20">TaxAgency</text>
    <text class="attribute pk" x="-90" y="50">Id (PK)</text>
    <text class="attribute" x="-90" y="70">DisplayName</text>
    <text class="attribute" x="-90" y="90">TaxTrackedOnSales</text>
    <text class="attribute" x="-90" y="110">TaxTrackedOnPurchases</text>
  </g>
  
  <!-- Relationships -->
  
  <!-- Company to Account (1:*) -->
  <path class="relationship" d="M 450,150 L 250,150 L 250,320" />
  <text class="cardinality" x="450" y="145">1</text>
  <text class="cardinality" x="255" y="315">*</text>
  
  <!-- Company to Customer (1:*) -->
  <path class="relationship" d="M 550,220 L 550,320" />
  <text class="cardinality" x="555" y="230">1</text>
  <text class="cardinality" x="555" y="315">*</text>
  
  <!-- Company to Vendor (1:*) -->
  <path class="relationship" d="M 650,150 L 900,150 L 900,320" />
  <text class="cardinality" x="650" y="145">1</text>
  <text class="cardinality" x="905" y="315">*</text>
  
  <!-- Company to Item (1:*) -->
  <path class="relationship" d="M 450,180 L 130,180 L 130,540" />
  <text class="cardinality" x="450" y="175">1</text>
  <text class="cardinality" x="135" y="535">*</text>
  
  <!-- Company to TaxAgency (1:*) -->
  <path class="relationship" d="M 650,180 L 980,180 L 980,740" />
  <text class="cardinality" x="650" y="175">1</text>
  <text class="cardinality" x="975" y="735">*</text>
  
  <!-- Customer to Invoice (1:*) -->
  <path class="relationship" d="M 500,480 L 430,480 L 430,540" />
  <text class="cardinality" x="495" y="475">1</text>
  <text class="cardinality" x="435" y="535">*</text>
  
  <!-- Customer to Payment (1:*) -->
  <path class="relationship" d="M 600,480 L 650,480 L 650,540" />
  <text class="cardinality" x="605" y="475">1</text>
  <text class="cardinality" x="655" y="535">*</text>
  
  <!-- Customer to Estimate (1:*) -->
  <path class="relationship" d="M 470,480 L 320,480 L 320,740" />
  <text class="cardinality" x="465" y="475">1</text>
  <text class="cardinality" x="325" y="735">*</text>
  
  <!-- Vendor to Bill (1:*) -->
  <path class="relationship" d="M 900,460 L 900,540" />
  <text class="cardinality" x="905" y="475">1</text>
  <text class="cardinality" x="905" y="535">*</text>
  
  <!-- Vendor to PurchaseOrder (1:*) -->
  <path class="relationship" d="M 850,460 L 540,460 L 540,740" />
  <text class="cardinality" x="845" y="455">1</text>
  <text class="cardinality" x="545" y="735">*</text>
  
  <!-- Item relationships with transactions -->
  <path class="relationship-dotted" d="M 200,640 L 350,640" />
  <text x="275" y="630" class="attribute" style="text-anchor: middle;">Used in transactions</text>
  
  <!-- Customer self-reference (parent/child) -->
  <path class="relationship" d="M 650,400 C 700,400 700,350 650,350" />
  <text class="cardinality" x="675" y="340">0..1</text>
  <text class="cardinality" x="675" y="390">*</text>
  
  <!-- Account to transactions references -->
  <path class="relationship-dotted" d="M 200,400 L 150,400 L 150,700 L 970,700 L 970,640" />
  <text x="560" y="690" class="attribute" style="text-anchor: middle;">Referenced by transactions</text>
  
  <!-- Estimate to Invoice (0..1:1) -->
  <path class="relationship-dotted" d="M 420,740 L 480,650" />
  <text class="cardinality" x="415" y="730">0..1</text>
  <text class="cardinality" x="475" y="655">1</text>
  
  <!-- PurchaseOrder to Bill (0..1:*) -->
  <path class="relationship-dotted" d="M 640,740 L 820,650" />
  <text class="cardinality" x="635" y="730">0..1</text>
  <text class="cardinality" x="815" y="655">*</text>
  
  <!-- Payment to Invoice (through LinkedTxn) -->
  <path class="relationship-dotted" d="M 550,610 L 650,610" />
  <text x="600" y="600" class="attribute" style="text-anchor: middle;">LinkedTxn</text>
  
</svg>
