<svg xmlns="http://www.w3.org/2000/svg" viewBox="0 0 900 700">
  <!-- Styles -->
  <style>
    .entity { fill: #e1f5fe; stroke: #2196f3; stroke-width: 2; }
    .report { fill: #e8f5e9; stroke: #4caf50; stroke-width: 2; }
    .title { font-family: Arial; font-weight: bold; font-size: 14px; text-anchor: middle; }
    .attr { font-family: Arial; font-size: 12px; }
    .pk { font-weight: bold; }
    .fk { font-style: italic; }
    .relation { stroke: #616161; stroke-width: 1.5; fill: none; }
    .arrow { fill: #616161; }
    .cardinality { font-family: Arial; font-size: 12px; fill: #616161; text-anchor: middle; }
    .report-text { font-family: Arial; font-style: italic; font-size: 11px; fill: #4caf50; }
  </style>

  <!-- Entities -->

  <!-- Account Entity -->
  <rect x="350" y="50" width="180" height="160" rx="5" ry="5" class="entity" />
  <text x="440" y="75" class="title">Account</text>
  <line x1="370" y1="85" x2="510" y2="85" stroke="#2196f3" stroke-width="1" />
  <text x="370" y="105" class="attr pk">id: string [PK]</text>
  <text x="370" y="125" class="attr">name: string</text>
  <text x="370" y="145" class="attr">type: string</text>
  <text x="370" y="165" class="attr">subtype: string</text>
  <text x="370" y="185" class="attr">balance: decimal</text>
  <text x="370" y="205" class="attr fk">parent_account_id: string [FK]</text>

  <!-- Customer Entity -->
  <rect x="50" y="200" width="180" height="140" rx="5" ry="5" class="entity" />
  <text x="140" y="225" class="title">Customer</text>
  <line x1="70" y1="235" x2="210" y2="235" stroke="#2196f3" stroke-width="1" />
  <text x="70" y="255" class="attr pk">id: string [PK]</text>
  <text x="70" y="275" class="attr">customer_name: string</text>
  <text x="70" y="295" class="attr">phone_numbers: string</text>
  <text x="70" y="315" class="attr">email: string</text>
  <text x="70" y="335" class="attr">billing_address: string</text>

  <!-- Vendor Entity -->
  <rect x="50" y="400" width="180" height="140" rx="5" ry="5" class="entity" />
  <text x="140" y="425" class="title">Vendor</text>
  <line x1="70" y1="435" x2="210" y2="435" stroke="#2196f3" stroke-width="1" />
  <text x="70" y="455" class="attr pk">id: string [PK]</text>
  <text x="70" y="475" class="attr">vendor_name: string</text>
  <text x="70" y="495" class="attr">phone_numbers: string</text>
  <text x="70" y="515" class="attr">email: string</text>
  <text x="70" y="535" class="attr">account_number: string</text>

  <!-- Employee Entity -->
  <rect x="50" y="600" width="180" height="100" rx="5" ry="5" class="entity" />
  <text x="140" y="625" class="title">Employee</text>
  <line x1="70" y1="635" x2="210" y2="635" stroke="#2196f3" stroke-width="1" />
  <text x="70" y="655" class="attr pk">id: string [PK]</text>
  <text x="70" y="675" class="attr">employee_name: string</text>
  <text x="70" y="695" class="attr">phone_numbers: string</text>

  <!-- Journal Entry Entity -->
  <rect x="350" y="400" width="180" height="140" rx="5" ry="5" class="entity" />
  <text x="440" y="425" class="title">JournalEntry</text>
  <line x1="370" y1="435" x2="510" y2="435" stroke="#2196f3" stroke-width="1" />
  <text x="370" y="455" class="attr pk">id: string [PK]</text>
  <text x="370" y="475" class="attr">date: date</text>
  <text x="370" y="495" class="attr">transaction_type: string</text>
  <text x="370" y="515" class="attr">reference_number: string</text>
  <text x="370" y="535" class="attr">name: string</text>

  <!-- Journal Line Item Entity -->
  <rect x="350" y="600" width="180" height="100" rx="5" ry="5" class="entity" />
  <text x="440" y="625" class="title">JournalLineItem</text>
  <line x1="370" y1="635" x2="510" y2="635" stroke="#2196f3" stroke-width="1" />
  <text x="370" y="655" class="attr pk">id: string [PK]</text>
  <text x="370" y="675" class="attr fk">journal_entry_id: string [FK]</text>
  <text x="370" y="695" class="attr fk">account: string [FK]</text>

  <!-- General Ledger Entity -->
  <rect x="650" y="250" width="180" height="160" rx="5" ry="5" class="entity" />
  <text x="740" y="275" class="title">GeneralLedgerEntry</text>
  <line x1="670" y1="285" x2="810" y2="285" stroke="#2196f3" stroke-width="1" />
  <text x="670" y="305" class="attr pk">id: string [PK]</text>
  <text x="670" y="325" class="attr fk">account: string [FK]</text>
  <text x="670" y="345" class="attr">date: date</text>
  <text x="670" y="365" class="attr">transaction_type: string</text>
  <text x="670" y="385" class="attr">debit: decimal</text>
  <text x="670" y="405" class="attr">credit: decimal</text>

  <!-- Reports (not tables, but conceptual) -->
  <rect x="650" y="50" width="180" height="60" rx="5" ry="5" class="report" />
  <text x="740" y="75" class="title">BalanceSheet</text>
  <text x="740" y="95" class="report-text">(Financial Report)</text>
  
  <rect x="650" y="120" width="180" height="60" rx="5" ry="5" class="report" />
  <text x="740" y="145" class="title">ProfitAndLoss</text>
  <text x="740" y="165" class="report-text">(Financial Report)</text>
  
  <rect x="650" y="190" width="180" height="60" rx="5" ry="5" class="report" />
  <text x="740" y="215" class="title">TrialBalance</text>
  <text x="740" y="235" class="report-text">(Financial Report)</text>

  <!-- Relationships -->
  
  <!-- Account self-reference (hierarchy) -->
  <path d="M 510 170 Q 550 170 550 120 Q 550 70 510 70" class="relation" />
  <polygon points="515,70 510,60 505,70" class="arrow" />
  <text x="565" y="120" class="cardinality">1:N</text>
  <text x="565" y="135" class="cardinality">parent-child</text>
  
  <!-- Account to BalanceSheet -->
  <path d="M 530 80 L 650 80" class="relation" />
  <polygon points="645,80 650,80 645,80" class="arrow" />
  <text x="590" y="70" class="cardinality">contributes to</text>
  
  <!-- Account to ProfitAndLoss -->
  <path d="M 500 210 Q 580 210 580 150 L 650 150" class="relation" />
  <polygon points="645,150 650,150 645,150" class="arrow" />
  <text x="590" y="140" class="cardinality">contributes to</text>
  
  <!-- Account to TrialBalance -->
  <path d="M 480 210 Q 560 210 560 220 L 650 220" class="relation" />
  <polygon points="645,220 650,220 645,220" class="arrow" />
  <text x="590" y="210" class="cardinality">contributes to</text>
  
  <!-- GeneralLedger to Account -->
  <path d="M 700 250 Q 700 180 530 150" class="relation" />
  <polygon points="535,146 530,150 535,154" class="arrow" />
  <text x="650" y="200" class="cardinality">affects</text>
  
  <!-- JournalEntry to GeneralLedger -->
  <path d="M 530 470 L 600 470 L 650 410" class="relation" />
  <polygon points="654,416 655,405 646,414" class="arrow" />
  <text x="590" y="450" class="cardinality">creates</text>
  
  <!-- JournalEntry to Account -->
  <path d="M 440 400 L 440 210" class="relation" />
  <polygon points="436,215 440,210 444,215" class="arrow" />
  <text x="450" y="300" class="cardinality">affects</text>
  
  <!-- JournalLineItem to JournalEntry -->
  <path d="M 440 600 L 440 540" class="relation" />
  <polygon points="436,545 440,540 444,545" class="arrow" />
  <text x="450" y="570" class="cardinality">belongs to</text>
  
  <!-- JournalLineItem to Account -->
  <path d="M 370 610 Q 300 610 300 200 Q 300 100 350 100" class="relation" />
  <polygon points="345,96 350,100 345,104" class="arrow" />
  <text x="310" y="300" class="cardinality">references</text>
  
  <!-- Customer to JournalEntry -->
  <path d="M 230 270 Q 290 270 350 400" class="relation" />
  <polygon points="346,396 354,396 350,400" class="arrow" />
  <text x="290" y="350" class="cardinality">relates to</text>
  
  <!-- Vendor to JournalEntry -->
  <path d="M 230 470 L 350 470" class="relation" />
  <polygon points="345,466 350,470 345,474" class="arrow" />
  <text x="290" y="450" class="cardinality">relates to</text>
  
  <!-- Employee to JournalEntry -->
  <path d="M 230 620 Q 290 620 290 550 Q 290 510 350 510" class="relation" />
  <polygon points="345,506 350,510 345,514" class="arrow" />
  <text x="290" y="550" class="cardinality">relates to</text>
</svg>
